<svg width="48" height="48" viewBox="0 0 48 48" fill="none" xmlns="http://www.w3.org/2000/svg">
  <path d="M24 4C16.268 4 10 9.268 10 16C10 19.318 11.842 22.26 14.7 24.2C15.142 24.643 16.067 24.541 16.414 24.099C18.3 21.423 20.848 19.849 23.001 18.503C24.131 17.801 26.013 16.757 28.005 15.407C28.586 14.932 30.074 14.207 30.636 13.128C31.206 12.062 32.256 12.423 32.728 13.343C34.047 15.249 36.331 15.713 37.984 13.73C39.638 11.747 37.933 9 35.063 8.275C32.837 7.606 29.742 6.057 27.015 4.203C25.726 3.416 23.906 3 22.072 3C20.662 3 19.276 3.331 18.083 3.978C16.688 4.731 15.625 5.775 14.957 7.189C13.718 9.85 14.839 13.183 17.007 14.692C19.267 16.32 21.548 17.439 23.739 18.634C22.768 20.291 22.123 22.032 22.437 23.576C22.817 25.242 24.041 26.658 25.356 27.547C28.786 30.637 27.672 36.688 24 36.688C21.858 36.688 20.009 35.664 19.003 34.039C16.447 30.002 15.481 23.836 15.722 19.631C15.986 16.196 17.774 13.561 20.09 12.122C22.232 10.719 24 8.939 24 4Z" fill="#F44336"/>
</svg>
