<svg width="48" height="48" viewBox="0 0 48 48" fill="none" xmlns="http://www.w3.org/2000/svg">
  <path d="M24 2C12.954 2 4 7.431 4 14.887C4 18.24 5.206 21.151 7.35 23.367C9.694 25.869 13.485 27.348 16.671 29.382C20.217 31.727 23.73 34.31 24 35.667C24.271 34.31 27.784 31.727 31.33 29.382C34.515 27.348 38.306 25.869 40.65 23.367C42.794 21.151 44 18.24 44 14.887C44 7.431 35.046 2 24 2ZM24 25.3C19.479 25.3 14.868 23.672 12.084 21.309C12.553 20.725 13.367 20.429 14.369 20.31C17.522 19.995 20.292 21.131 23.366 21.879C26.168 22.589 28.877 23.092 30.676 24.195C30.421 24.913 29.907 25.312 29.192 25.312C26.858 25.312 24 25.3 24 25.3Z" fill="#00758F"/>
</svg>
